<svg width="62" height="24" viewBox="0 0 62 24" fill="none" xmlns="http://www.w3.org/2000/svg">
<path d="M31.3303 5.14282H36.224C37.007 5.14282 37.6677 5.24078 38.2304 5.4367C38.7932 5.63262 39.2826 5.90201 39.6496 6.24486C40.0166 6.58772 40.3103 7.00405 40.4815 7.49384C40.6528 7.98364 40.7507 8.49792 40.7507 9.06119V9.45303C40.7507 10.0163 40.6528 10.5306 40.4571 11.0204C40.2613 11.5102 39.9677 11.9265 39.6007 12.2938C39.2337 12.6612 38.7443 12.9551 38.1815 13.1755C37.6187 13.3959 36.9581 13.4938 36.224 13.4938H33.2144V18.8571H31.3303V5.14282ZM33.2144 6.78364V11.8775H35.9059C37.8879 11.8775 38.8666 11.0694 38.8666 9.42854V9.08568C38.8666 8.30201 38.6219 7.71425 38.157 7.3469C37.6921 6.97956 37.007 6.78364 36.1262 6.78364H33.2144Z" fill="#333333"/>
<path d="M45.5709 19.004C44.5187 19.004 43.6868 18.7346 43.0751 18.2204C42.4634 17.7061 42.1453 16.9959 42.1453 16.0653V15.551C42.1453 14.6693 42.4389 13.9346 43.0506 13.3714C43.6378 12.8081 44.6166 12.5387 45.9379 12.5387H48.5805V11.9265C48.5805 11.2408 48.4092 10.702 48.0666 10.3836C47.7241 10.0408 47.1858 9.86933 46.4273 9.86933C45.8155 9.86933 45.3017 9.96729 44.8368 10.1632C44.3964 10.3591 43.9315 10.604 43.4421 10.9224L42.5368 9.55097C43.0506 9.20811 43.6134 8.88974 44.2496 8.62035C44.8857 8.35097 45.6198 8.22852 46.4517 8.22852C47.039 8.22852 47.5773 8.30199 48.0422 8.44892C48.5315 8.59586 48.9475 8.81627 49.2901 9.08566C49.6326 9.37954 49.9018 9.72239 50.0975 10.1387C50.2933 10.555 50.3912 11.0204 50.3912 11.5346V18.8571H48.6294V17.6081H48.605C48.5071 17.804 48.3603 17.9755 48.189 18.1224C48.0177 18.2693 47.822 18.4163 47.6262 18.5387C47.3571 18.6857 47.039 18.8081 46.7209 18.8816C46.4273 18.9795 46.0358 19.004 45.5709 19.004ZM48.5805 14.1306H45.9868C45.2528 14.1306 44.7389 14.2775 44.4453 14.5469C44.1272 14.8163 43.9804 15.2081 43.9804 15.6979V15.9673C43.9804 16.4816 44.1517 16.8489 44.5187 17.0693C44.8857 17.2897 45.3017 17.4122 45.7911 17.4122C46.256 17.4122 46.6475 17.3632 46.99 17.2408C47.3326 17.1428 47.6262 16.9714 47.9198 16.751C48.1645 16.555 48.3603 16.3346 48.4581 16.0897C48.556 15.8448 48.6294 15.5265 48.6294 15.1346V14.1306H48.5805Z" fill="#333333"/>
<path d="M56.8265 16.7755L59.5669 8.47345H61.4999L56.0924 23.1673L54.4285 22.5796L55.7743 19.0286L51.9817 8.47345H53.9881L56.753 16.7755H56.8265Z" fill="#333333"/>
<path d="M24.4791 0H0.5V24H24.4791V0Z" fill="#00C73C"/>
<path d="M14.3982 17.4858L10.5322 11.8041V17.4858H6.49487V6.51434H10.5811L14.4471 12.196V6.51434H18.4844V17.4858H14.3982Z" fill="white"/>
</svg>
