<?xml version="1.0" encoding="UTF-8" standalone="no"?><!DOCTYPE svg PUBLIC "-//W3C//DTD SVG 1.1//EN" "http://www.w3.org/Graphics/SVG/1.1/DTD/svg11.dtd"><svg width="100%" height="100%" viewBox="0 0 8605 2459" version="1.1" xmlns="http://www.w3.org/2000/svg" xmlns:xlink="http://www.w3.org/1999/xlink" xml:space="preserve" xmlns:serif="http://www.serif.com/" style="fill-rule:evenodd;clip-rule:evenodd;stroke-linejoin:round;stroke-miterlimit:2;"><rect id="footer-BI" x="-0" y="0" width="8604.17" height="2458.33" style="fill:none;"/><clipPath id="_clip1"><rect x="-0" y="0" width="8604.17" height="2458.33"/></clipPath><g clip-path="url(#_clip1)"><rect x="1.389" y="0" width="8604.17" height="2458.33" style="fill:none;"/><path d="M3538.89,1391.67l-0,733.333l-250,0l-0,-50.046c-60.192,30.804 -128.087,48.687 -200,49.971l-0,0.075l-550,0l-0,-1333.33l250,-0l-0,1083.33l291.667,-0c114.982,-0 208.333,-93.351 208.333,-208.333l-0,-875l250,-0l-0,350l83.333,-0l0,-350l250,-0l0,1333.33l-250,0l0,-733.333l-83.333,-0Zm1258.33,366.666l541.667,0l-0,-966.666l-1333.33,-0l-0,966.666l541.666,0l0,116.667l-541.666,-0l-0,250l1333.33,-0l-0,-250l-541.667,-0l0,-116.667Zm-541.666,-716.666l-0,466.666l833.333,0l-0,-466.666l-833.333,-0Z" style="fill:#868686;"/><path d="M8072.22,2125c-174.11,-0 -335.304,-55.741 -466.668,-150.315c-131.387,94.583 -292.569,150.315 -466.665,150.315l-200,0l-0,-250l200,0c280.999,0 513.063,-211.185 545.992,-483.333l-117.766,-0c-32.112,207.566 -211.736,366.666 -428.226,366.666l-200,0l-0,-250l200,0c77.669,0 144.122,-48.403 170.815,-116.666l-504.148,-0l-0,733.333l-250,0l-0,-1333.33l250,-0l-0,350l516.666,-0l0,-100l-383.333,-0l-0,-250l633.333,-0l0,350l116.667,-0l-0,-350l250,-0l-0,533.333l-0,0.005c-0,175.504 -56.64,337.888 -152.602,469.819c83.334,50.859 181.238,80.176 285.935,80.176c0,0 200,0 200,0l0,250l-200,0Zm-1616.67,-0.182l-0,-1333.15l-966.667,-0l-0,1333.33l966.667,-0.182Zm-716.667,-1083.15l-0,833.333l466.667,0l-0,-833.333l-466.667,-0Zm2533.33,-250l-250,-0l0,966.666l250,0l0,-966.666Z" style="fill:#868686;"/><path d="M371.242,2088.26l0.109,0.109l0.11,0.109c22.617,22.562 53.822,36.52 88.261,36.52l1083.33,-0c68.989,-0 125,-56.011 125,-125l-0,-166.667c-0,-68.989 -56.011,-125 -125,-125l-791.667,0l-0,-791.666c-0,-68.99 -56.011,-125 -125,-125l-166.667,-0c-68.989,-0 -125,56.01 -125,125l0,1083.33c0,34.439 13.958,65.645 36.52,88.262Zm1830.91,-570.616l0.11,-0.108l0.109,-0.11c22.562,-22.617 36.52,-53.822 36.52,-88.261l-0,-1083.33c-0,-34.439 -13.958,-65.644 -36.52,-88.261l-0.109,-0.11l-0.11,-0.108c-22.616,-22.563 -53.822,-36.521 -88.261,-36.521l-1083.33,0c-34.44,0 -65.645,13.958 -88.262,36.521l-0.109,0.108l-0.109,0.11c-22.563,22.617 -36.52,53.822 -36.52,88.261l-0,1083.33c-0,34.439 13.957,65.644 36.52,88.261l0.109,0.11l0.109,0.108c22.617,22.563 53.822,36.521 88.262,36.521l1083.33,-0c34.439,-0 65.645,-13.958 88.261,-36.521Zm-879.928,-880.146l0,500l500,-0l0,-500l-500,-0Z" style="fill:#868686;"/></g></svg>