<svg width="62" height="24" viewBox="0 0 62 24" fill="none" xmlns="http://www.w3.org/2000/svg">
<path fill-rule="evenodd" clip-rule="evenodd" d="M49.0962 24H13.5392C6.52262 24 0.833496 18.6269 0.833496 12C0.833496 5.37313 6.52262 0 13.5392 0H49.1278C56.1444 0 61.8335 5.37313 61.8335 12C61.8335 18.6269 56.1128 24 49.0962 24Z" fill="#FFEB00"/>
<path fill-rule="evenodd" clip-rule="evenodd" d="M15.0878 5.76123C11.2634 5.76123 8.16602 8.05974 8.16602 10.9254C8.16602 12.7463 9.46187 14.3582 11.3898 15.2836L10.7261 17.612C10.6945 17.6717 10.7261 17.7612 10.7893 17.8209C10.8209 17.8508 10.8841 17.8806 10.9158 17.8806C10.9474 17.8806 11.0106 17.8508 11.0422 17.8508L13.8551 16.0597C14.266 16.1194 14.6769 16.1493 15.1194 16.1493C18.9437 16.1493 22.0411 13.8209 22.0411 10.9851C22.0411 8.05974 18.9437 5.76123 15.0878 5.76123Z" fill="black"/>
<path d="M27.8884 15.2239V18.5672H25.3599V6.23881H27.1298L27.4459 7.01493C27.9832 6.50747 28.8049 5.97015 30.1008 5.97015C32.5661 5.97015 33.7355 7.7015 33.7355 10.5373C33.7355 13.4925 31.934 15.3731 29.3422 15.3731C28.8365 15.403 28.4573 15.3731 27.8884 15.2239ZM27.8884 8.23881V13.5522C28.0148 13.5821 28.3625 13.6119 28.7101 13.6119C30.5117 13.6119 31.207 12.4179 31.207 10.5373C31.207 8.89553 30.7329 7.91045 29.3106 7.91045C28.8049 7.91045 28.2992 8.02986 27.8884 8.23881Z" fill="black"/>
<path d="M39.2034 9.7314H40.6256V9.43289C40.6256 8.44782 40.0251 8.00006 39.0137 8.00006C38.2236 8.00006 37.2438 8.20901 36.422 8.59707L35.7267 7.01498C36.6116 6.41797 38.0023 6.02991 39.235 6.02991C41.637 6.02991 42.9645 7.22394 42.9645 9.52244V15.1642H41.1945L40.9417 14.418C39.9303 15.1045 38.9821 15.403 38.1603 15.403C36.3272 15.403 35.2842 14.3583 35.2842 12.5971C35.2842 10.7165 36.6432 9.7314 39.2034 9.7314ZM40.6572 12.8657V11.2239H39.4878C38.192 11.2239 37.5282 11.6717 37.5282 12.5374C37.5282 13.1941 37.8759 13.5224 38.6344 13.5224C39.3298 13.5523 40.2148 13.2239 40.6572 12.8657Z" fill="black"/>
<path d="M50.6131 14.2388C49.7281 16.4477 48.6851 18.0597 47.1364 18.9552L45.5877 17.6119C46.4727 16.8656 47.1364 16.1492 47.6737 15.194L44.3235 6.56712L46.8204 5.94025L48.9696 12.9253L51.0872 5.9104L53.5525 6.56712L50.6131 14.2388Z" fill="black"/>
</svg>
